<?xml version="1.0" standalone="no"?>
<!DOCTYPE svg PUBLIC "-//W3C//DTD SVG 20010904//EN"
 "http://www.w3.org/TR/2001/REC-SVG-20010904/DTD/svg10.dtd">
<svg version="1.0" xmlns="http://www.w3.org/2000/svg"
 width="1024.000000pt" height="1024.000000pt" viewBox="0 0 1024.000000 1024.000000"
 preserveAspectRatio="xMidYMid meet">
<metadata>
Created by potrace 1.14, written by Peter Selinger 2001-2017
</metadata>
<g transform="translate(0.000000,1024.000000) scale(0.100000,-0.100000)"
fill="#000000" stroke="none">
<path d="M4849 10236 c-2 -2 -51 -6 -109 -10 -173 -10 -427 -44 -590 -77 -52
-11 -108 -22 -125 -25 -104 -18 -384 -97 -570 -161 -399 -137 -764 -314 -1110
-539 -186 -120 -455 -321 -580 -433 -124 -112 -162 -148 -280 -266 -660 -662
-1123 -1490 -1344 -2405 -35 -144 -70 -319 -85 -430 -3 -19 -8 -52 -11 -72 -2
-21 -8 -62 -11 -90 -3 -29 -7 -64 -9 -77 -20 -122 -28 -747 -12 -921 15 -172
18 -197 27 -270 120 -891 455 -1712 990 -2420 345 -457 769 -859 1230 -1167
107 -71 253 -163 280 -176 8 -4 38 -21 65 -38 84 -51 462 -234 597 -288 266
-107 690 -235 878 -265 19 -3 46 -8 60 -11 14 -3 40 -8 59 -11 18 -3 43 -8 55
-10 60 -12 213 -35 264 -39 31 -3 75 -8 97 -10 124 -14 248 -19 485 -19 233
-1 503 9 519 18 3 2 46 7 95 10 49 4 92 9 95 10 3 2 29 7 56 10 39 5 231 40
390 72 199 39 637 180 850 274 22 10 74 32 115 50 287 124 681 357 963 568
268 201 543 453 750 687 39 44 73 82 77 85 3 3 24 28 45 55 22 28 43 52 46 55
17 15 206 270 266 360 158 235 336 556 432 780 13 30 32 73 42 95 57 131 159
421 207 595 32 113 46 168 58 230 3 14 9 39 14 55 5 17 11 44 14 60 3 17 16
94 30 172 24 138 29 169 41 283 3 30 8 69 10 85 26 196 27 871 1 1000 -2 11
-7 52 -10 90 -43 440 -187 987 -378 1430 -213 496 -497 945 -858 1359 -137
158 -367 386 -510 506 -36 30 -67 58 -70 61 -12 14 -244 191 -320 245 -265
186 -478 308 -820 472 -336 161 -896 335 -1245 386 -23 4 -50 8 -60 10 -11 2
-56 9 -100 16 -44 6 -91 13 -105 15 -14 2 -59 7 -100 10 -41 4 -93 9 -115 12
-47 5 -671 14 -676 9z"/>
</g>
</svg>
